<svg width="20" height="21" viewBox="0 0 20 21" fill="none" xmlns="http://www.w3.org/2000/svg">
<path d="M18.3659 11.1718C18.2027 10.9861 18.1127 10.7473 18.1127 10.5C18.1127 10.2528 18.2027 10.014 18.3659 9.82824L19.6688 8.36251C19.8123 8.20237 19.9015 8.00086 19.9234 7.78691C19.9454 7.57296 19.899 7.35755 19.7909 7.1716L17.7552 3.64977C17.6482 3.46403 17.4853 3.3168 17.2898 3.22907C17.0942 3.14134 16.8759 3.11758 16.6661 3.16119L14.7525 3.54798C14.509 3.59829 14.2555 3.55774 14.0398 3.43398C13.8242 3.31022 13.6613 3.11181 13.5819 2.87619L12.961 1.01348C12.8927 0.811312 12.7626 0.635715 12.5891 0.511512C12.4156 0.387308 12.2074 0.32078 11.994 0.321331H7.92255C7.70058 0.309745 7.48093 0.371131 7.29713 0.496113C7.11333 0.621095 6.9755 0.802803 6.90468 1.01348L6.33467 2.87619C6.25528 3.11181 6.09239 3.31022 5.87674 3.43398C5.6611 3.55774 5.40761 3.59829 5.16412 3.54798L3.19963 3.16119C3.00068 3.13308 2.79787 3.16447 2.61674 3.25141C2.43561 3.33836 2.28426 3.47696 2.18176 3.64977L0.146014 7.1716C0.0352295 7.35548 -0.014583 7.56967 0.00369848 7.78357C0.0219799 7.99746 0.107419 8.2001 0.247801 8.36251L1.5405 9.82824C1.70368 10.014 1.79368 10.2528 1.79368 10.5C1.79368 10.7473 1.70368 10.9861 1.5405 11.1718L0.247801 12.6376C0.107419 12.8 0.0219799 13.0026 0.00369848 13.2165C-0.014583 13.4304 0.0352295 13.6446 0.146014 13.8285L2.18176 17.3503C2.28873 17.536 2.45161 17.6833 2.64718 17.771C2.84275 17.8587 3.06102 17.8825 3.27088 17.8389L5.18447 17.4521C5.42797 17.4018 5.68145 17.4423 5.8971 17.5661C6.11274 17.6899 6.27563 17.8883 6.35503 18.1239L6.97593 19.9866C7.04675 20.1973 7.18459 20.379 7.36838 20.504C7.55218 20.6289 7.77183 20.6903 7.9938 20.6787H12.0653C12.2787 20.6793 12.4868 20.6128 12.6604 20.4886C12.8339 20.3644 12.964 20.1888 13.0323 19.9866L13.6532 18.1239C13.7326 17.8883 13.8954 17.6899 14.1111 17.5661C14.3267 17.4423 14.5802 17.4018 14.8237 17.4521L16.7373 17.8389C16.9472 17.8825 17.1654 17.8587 17.361 17.771C17.5566 17.6833 17.7195 17.536 17.8264 17.3503L19.8622 13.8285C19.9702 13.6425 20.0166 13.4271 19.9947 13.2132C19.9727 12.9992 19.8836 12.7977 19.74 12.6376L18.3659 11.1718ZM16.8493 12.5358L17.6636 13.4519L16.3607 15.7115L15.1596 15.4672C14.4265 15.3174 13.6639 15.4419 13.0166 15.8172C12.3692 16.1925 11.8822 16.7924 11.648 17.503L11.2612 18.643H8.65541L8.28898 17.4826C8.05472 16.772 7.5677 16.1721 6.92036 15.7968C6.27301 15.4216 5.51042 15.297 4.77733 15.4469L3.57624 15.6912L2.25301 13.4417L3.0673 12.5256C3.56805 11.9657 3.84489 11.241 3.84489 10.4899C3.84489 9.73874 3.56805 9.01397 3.0673 8.45412L2.25301 7.53803L3.55588 5.29872L4.75697 5.54301C5.49006 5.69286 6.25266 5.56833 6.9 5.19306C7.54734 4.81779 8.03436 4.2179 8.26862 3.50727L8.65541 2.35707H11.2612L11.648 3.51744C11.8822 4.22808 12.3692 4.82797 13.0166 5.20324C13.6639 5.57851 14.4265 5.70304 15.1596 5.55319L16.3607 5.3089L17.6636 7.56857L16.8493 8.48465C16.3541 9.04322 16.0808 9.76379 16.0808 10.5102C16.0808 11.2566 16.3541 11.9772 16.8493 12.5358ZM9.95829 6.42855C9.15302 6.42855 8.36584 6.66734 7.69629 7.11472C7.02674 7.5621 6.50489 8.19798 6.19673 8.94195C5.88857 9.68591 5.80794 10.5046 5.96504 11.2943C6.12214 12.0841 6.50991 12.8096 7.07931 13.379C7.64872 13.9484 8.37419 14.3362 9.16398 14.4933C9.95377 14.6504 10.7724 14.5698 11.5164 14.2616C12.2603 13.9534 12.8962 13.4316 13.3436 12.762C13.791 12.0925 14.0298 11.3053 14.0298 10.5C14.0298 9.42021 13.6008 8.38461 12.8373 7.62106C12.0737 6.85751 11.0381 6.42855 9.95829 6.42855ZM9.95829 12.5358C9.55566 12.5358 9.16207 12.4164 8.82729 12.1927C8.49251 11.969 8.23159 11.6511 8.07751 11.2791C7.92343 10.9071 7.88311 10.4978 7.96166 10.1029C8.04021 9.70799 8.2341 9.34525 8.5188 9.06055C8.8035 8.77585 9.16624 8.58196 9.56113 8.50341C9.95603 8.42486 10.3653 8.46518 10.7373 8.61926C11.1093 8.77334 11.4273 9.03426 11.6509 9.36904C11.8746 9.70382 11.994 10.0974 11.994 10.5C11.994 11.0399 11.7795 11.5577 11.3978 11.9395C11.016 12.3213 10.4982 12.5358 9.95829 12.5358Z" fill="black"/>
</svg>
