<svg width="20" height="21" viewBox="0 0 20 21" fill="none" xmlns="http://www.w3.org/2000/svg">
<path fill-rule="evenodd" clip-rule="evenodd" d="M13.6364 7.77272C13.6364 9.78099 12.0083 11.4091 10 11.4091C7.9917 11.4091 6.36365 9.78099 6.36365 7.77272C6.36365 5.76441 7.9917 4.13635 10 4.13635C12.0083 4.13635 13.6364 5.76441 13.6364 7.77272ZM11.8182 7.77272C11.8182 8.7769 11.0042 9.5909 10 9.5909C8.99583 9.5909 8.18183 8.7769 8.18183 7.77272C8.18183 6.76856 8.99583 5.95453 10 5.95453C11.0042 5.95453 11.8182 6.76856 11.8182 7.77272Z" fill="black"/>
<path fill-rule="evenodd" clip-rule="evenodd" d="M10 0.5C4.47715 0.5 0 4.97715 0 10.5C0 16.0228 4.47715 20.5 10 20.5C15.5228 20.5 20 16.0228 20 10.5C20 4.97715 15.5228 0.5 10 0.5ZM1.81818 10.5C1.81818 12.4002 2.46595 14.1491 3.55271 15.5379C5.04768 13.5808 7.4057 12.3182 10.0586 12.3182C12.6771 12.3182 15.0084 13.5483 16.5059 15.4621C17.5573 14.0857 18.1818 12.3658 18.1818 10.5C18.1818 5.98131 14.5187 2.31818 10 2.31818C5.48131 2.31818 1.81818 5.98131 1.81818 10.5ZM10 18.6818C8.04525 18.6818 6.25059 17.9963 4.84334 16.8525C5.99411 15.2102 7.90096 14.1364 10.0586 14.1364C12.1895 14.1364 14.0757 15.1837 15.2307 16.7917C13.8126 17.9719 11.9892 18.6818 10 18.6818Z" fill="black"/>
</svg>
