<svg width="20" height="23" viewBox="0 0 20 23" fill="none" xmlns="http://www.w3.org/2000/svg">
<path d="M1 0.5H17C17.2652 0.5 17.5196 0.605357 17.7071 0.792893C17.8946 0.98043 18 1.23478 18 1.5V5.5C18 5.76522 17.8946 6.01957 17.7071 6.20711C17.5196 6.39464 17.2652 6.5 17 6.5H1C0.734784 6.5 0.48043 6.39464 0.292893 6.20711C0.105357 6.01957 0 5.76522 0 5.5V1.5C0 1.23478 0.105357 0.98043 0.292893 0.792893C0.48043 0.605357 0.734784 0.5 1 0.5ZM1 8.5H17C17.2652 8.5 17.5196 8.60536 17.7071 8.79289C17.8946 8.98043 18 9.23478 18 9.5V10.17L15.5 9.06L9 11.94V14.5H1C0.734784 14.5 0.48043 14.3946 0.292893 14.2071C0.105357 14.0196 0 13.7652 0 13.5V9.5C0 9.23478 0.105357 8.98043 0.292893 8.79289C0.48043 8.60536 0.734784 8.5 1 8.5ZM1 16.5H9C9.06 18.75 10 20.9 11.46 22.5H1C0.734784 22.5 0.48043 22.3946 0.292893 22.2071C0.105357 22.0196 0 21.7652 0 21.5V17.5C0 17.2348 0.105357 16.9804 0.292893 16.7929C0.48043 16.6054 0.734784 16.5 1 16.5ZM6 4.5H7V2.5H6V4.5ZM6 12.5H7V10.5H6V12.5ZM6 20.5H7V18.5H6V20.5ZM2 2.5V4.5H4V2.5H2ZM2 10.5V12.5H4V10.5H2ZM2 18.5V20.5H4V18.5H2ZM15.5 11.5L20 13.5V16.5C20 19.28 18.08 21.87 15.5 22.5C12.92 21.87 11 19.28 11 16.5V13.5L15.5 11.5ZM15.5 13.44L13 14.56V17.22C13 18.76 14.07 20.2 15.5 20.56V13.44Z" fill="black"/>
</svg>
