<svg width="20" height="13" viewBox="0 0 20 13" fill="none" xmlns="http://www.w3.org/2000/svg">
<path fill-rule="evenodd" clip-rule="evenodd" d="M10.0009 0.136963C9.2901 0.136739 8.59485 0.344838 8.00109 0.735529C7.40733 1.12622 6.94109 1.68237 6.66003 2.33521C6.37897 2.98805 6.29541 3.70895 6.41969 4.40877C6.54397 5.10859 6.87063 5.75664 7.35928 6.27279C6.34317 6.83472 5.53299 7.70637 5.04673 8.7608C4.56048 9.81522 4.42355 10.9973 4.65588 12.135C4.69761 12.3405 4.80909 12.5252 4.97145 12.6579C5.1338 12.7906 5.33703 12.8631 5.54672 12.8631H14.455C14.6647 12.8631 14.8679 12.7906 15.0303 12.6579C15.1926 12.5252 15.3041 12.3405 15.3459 12.135C15.5784 10.9972 15.4416 9.81488 14.9553 8.76027C14.469 7.70566 13.6587 6.83386 12.6425 6.27188C13.1308 5.75569 13.4572 5.10773 13.5813 4.40806C13.7054 3.70839 13.6218 2.98769 13.3408 2.33503C13.0598 1.68237 12.5937 1.12636 12.0001 0.735712C11.4065 0.345065 10.7115 0.136907 10.0009 0.136963ZM14.1678 5.39014C14.4096 4.90291 14.5459 4.35387 14.5459 3.77301C14.5459 3.19215 14.4096 2.64311 14.1678 2.15588C14.3814 1.86843 14.6495 1.62587 14.9569 1.44205C15.2643 1.25822 15.6048 1.13674 15.9591 1.08453C16.3134 1.03233 16.6746 1.05042 17.0219 1.13777C17.3692 1.22513 17.6959 1.38004 17.9834 1.59365C18.2708 1.80727 18.5134 2.07542 18.6972 2.38278C18.881 2.69014 19.0025 3.03069 19.0547 3.385C19.1069 3.73931 19.0888 4.10043 19.0015 4.44775C18.9141 4.79507 18.7592 5.12178 18.5456 5.40923C19.4273 6.07281 20 7.12999 20 8.31807V9.22708C20 9.46816 19.9042 9.69938 19.7338 9.86985C19.5633 10.0403 19.3321 10.1361 19.091 10.1361H16.2885C16.1514 9.32791 15.8341 8.56096 15.3602 7.89216C14.8862 7.22337 14.2677 6.66989 13.5506 6.27279C13.786 6.02411 13.9852 5.7435 14.1423 5.43923C14.1556 5.42913 14.1689 5.41913 14.1823 5.40923L14.1678 5.39014ZM6.45027 6.27188C6.21523 6.02342 6.01633 5.74312 5.85942 5.43923C5.84615 5.42914 5.83282 5.41914 5.81942 5.40923L5.83396 5.39014C5.58435 4.88767 5.4549 4.33407 5.45581 3.77301C5.45581 3.19215 5.59217 2.64311 5.83396 2.15588C5.62035 1.86843 5.3522 1.62587 5.04484 1.44205C4.73748 1.25822 4.39692 1.13674 4.04262 1.08453C3.68831 1.03233 3.32718 1.05042 2.97987 1.13777C2.63255 1.22513 2.30584 1.38004 2.01839 1.59365C1.73094 1.80727 1.48838 2.07542 1.30455 2.38278C1.12073 2.69014 0.999251 3.03069 0.947044 3.385C0.894836 3.73931 0.912926 4.10043 1.00028 4.44775C1.08764 4.79507 1.24255 5.12178 1.45616 5.40923C0.835733 5.87324 0.380008 6.52356 0.155615 7.26511C-0.0687788 8.00665 -0.0500722 8.80054 0.209 9.53069C0.271718 9.70769 0.387712 9.86092 0.541041 9.96932C0.69437 10.0777 0.877509 10.136 1.06529 10.1361H3.71233C3.84929 9.32799 4.16645 8.5611 4.64027 7.89231C5.11409 7.22351 5.73241 6.66999 6.44936 6.27279L6.45027 6.27188Z" fill="black"/>
</svg>
